<?xml version="1.0" encoding="utf-8"?>
<!-- Generator: Adobe Illustrator 21.1.0, SVG Export Plug-In . SVG Version: 6.00 Build 0)  -->
<svg version="1.1" xmlns="http://www.w3.org/2000/svg" xmlns:xlink="http://www.w3.org/1999/xlink" x="0px" y="0px"
	 viewBox="0 0 100 100" style="enable-background:new 0 0 100 100;" xml:space="preserve">
<style type="text/css">
	.st0{display:none;}
	.st1{display:inline;fill:#D8D8D8;}
	.st2{display:inline;fill:#C2C2C2;}
	.st3{display:inline;fill:#DC2B27;}
	.st4{display:inline;}
	.st5{fill:#C32426;}
	.st6{fill:#FFFFFF;fill-opacity:0;}
	.st7{fill:#848484;}
	.st8{fill:#D8D8D8;}
	.st9{fill:#C2C2C2;}
	.st10{fill:#DC2B27;}
</style>
<g id="Reject_Post" class="st0">
	<rect x="23.1" y="10.9" class="st1" width="5" height="80"/>
	<rect x="23.1" y="10.9" class="st2" width="5" height="48"/>
	<polygon class="st3" points="23.1,50.9 28.1,50.9 72.5,34.3 28.1,16.9 23.1,16.9 	"/>
	<rect x="23.1" y="14.9" class="st3" width="5" height="38"/>
	<g class="st4">
		<g>
			<g>
				<polygon class="st5" points="33.4,18.6 28.4,17 28.4,50.8 33.4,49.2 				"/>
			</g>
		</g>
	</g>
</g>
<g id="Reject_Post_copy">
	<rect id="BG" class="st6" width="100" height="100"/>
	<ellipse class="st7" cx="32.4" cy="91" rx="11.1" ry="2.6"/>
	<rect x="41.1" y="12.3" transform="matrix(0.9557 0.2944 -0.2944 0.9557 17.3361 -10.5024)" class="st8" width="5" height="80"/>
	<rect x="45.8" y="13" transform="matrix(0.9557 0.2944 -0.2944 0.9557 13.0431 -12.567)" class="st9" width="5" height="48"/>
	<polygon class="st10" points="41.2,51.6 45.9,53.1 93.2,50.3 55.9,20.6 51.2,19.1 	"/>
	<rect x="46.1" y="17.1" transform="matrix(0.9557 0.2944 -0.2944 0.9557 12.7748 -12.696)" class="st10" width="5" height="38"/>
	<g>
		<g>
			<g>
				<polygon class="st5" points="60.5,23.8 56.2,20.8 46.3,53.1 51.5,53.1 				"/>
			</g>
		</g>
	</g>
</g>
</svg>
