<?xml version="1.0" encoding="utf-8"?>
<!-- Generator: Adobe Illustrator 23.1.0, SVG Export Plug-In . SVG Version: 6.00 Build 0)  -->
<svg version="1.1" id="Layer_1" xmlns="http://www.w3.org/2000/svg" xmlns:xlink="http://www.w3.org/1999/xlink" x="0px" y="0px"
	 viewBox="0 0 501.9 170.5" style="enable-background:new 0 0 501.9 170.5;" xml:space="preserve">
<style type="text/css">
	.st0{fill:#666666;}
	.st1{filter:url(#Adobe_OpacityMaskFilter);}
	.st2{clip-path:url(#SVGID_2_);fill:url(#SVGID_4_);}
	.st3{clip-path:url(#SVGID_2_);mask:url(#SVGID_3_);fill:url(#SVGID_5_);}
	.st4{filter:url(#Adobe_OpacityMaskFilter_1_);}
	.st5{clip-path:url(#SVGID_7_);fill:url(#SVGID_9_);}
	.st6{clip-path:url(#SVGID_7_);mask:url(#SVGID_8_);fill:url(#SVGID_10_);}
	.st7{filter:url(#Adobe_OpacityMaskFilter_2_);}
	.st8{clip-path:url(#SVGID_12_);fill:url(#SVGID_14_);}
	.st9{clip-path:url(#SVGID_12_);mask:url(#SVGID_13_);fill:url(#SVGID_15_);}
	.st10{filter:url(#Adobe_OpacityMaskFilter_3_);}
	.st11{clip-path:url(#SVGID_17_);fill:url(#SVGID_19_);}
	.st12{clip-path:url(#SVGID_17_);mask:url(#SVGID_18_);fill:url(#SVGID_20_);}
	.st13{filter:url(#Adobe_OpacityMaskFilter_4_);}
	.st14{clip-path:url(#SVGID_22_);fill:url(#SVGID_24_);}
	.st15{clip-path:url(#SVGID_22_);mask:url(#SVGID_23_);fill:url(#SVGID_25_);}
	.st16{filter:url(#Adobe_OpacityMaskFilter_5_);}
	.st17{clip-path:url(#SVGID_27_);fill:url(#SVGID_29_);}
	.st18{clip-path:url(#SVGID_27_);mask:url(#SVGID_28_);fill:url(#SVGID_30_);}
	.st19{clip-path:url(#SVGID_32_);fill:url(#SVGID_33_);}
	.st20{clip-path:url(#SVGID_35_);fill:url(#SVGID_36_);}
	.st21{clip-path:url(#SVGID_38_);fill:url(#SVGID_39_);}
	.st22{clip-path:url(#SVGID_41_);fill:url(#SVGID_42_);}
	.st23{clip-path:url(#SVGID_44_);fill:url(#SVGID_45_);}
	.st24{clip-path:url(#SVGID_47_);fill:url(#SVGID_48_);}
</style>
<g>
	<g>
		<path class="st0" d="M452.3,90.8c0-6.6-2.1-12.3-6.4-17c-4.2-4.7-9.7-7.1-16.4-7.1c-7.1,0-12.8,2.3-17.3,6.9
			c-4.4,4.6-6.7,10.3-6.7,17.2c0,6.9,2.3,12.7,6.8,17.2c4.5,4.5,10.4,6.8,17.7,6.8c9,0,15.7-3.4,20.1-10.3l-6.8-3.8
			c-2.7,4.4-7.1,6.7-13.2,6.7c-4.3,0-8-1.1-10.9-3.4c-1.6-1.3-3-2.8-3.9-4.6c-1.2-2.2-1.7-4.6-1.7-7.1v-4.8c0.7-4,2.4-7.2,5.2-9.6
			c2.8-2.4,6.3-3.6,10.6-3.6c3.7,0,6.9,1.1,9.6,3.4c2.7,2.3,4.4,5.5,5.1,9.9h-30.5l5.9,6.9H452C452.2,93.2,452.3,92,452.3,90.8"/>
		<path class="st0" d="M247,59.6c-1.5,0-2.8-0.5-3.8-1.6c-1-1-1.6-2.3-1.6-3.7c0-1.5,0.5-2.7,1.6-3.8c1-1.1,2.3-1.6,3.8-1.6
			c1.5,0,2.7,0.5,3.7,1.6c1,1.1,1.6,2.3,1.6,3.8c0,1.5-0.5,2.7-1.6,3.7C249.7,59,248.5,59.6,247,59.6 M243,67.9h8v45.7h-8V67.9z"/>
		<polygon class="st0" points="295.1,67.9 303.7,67.9 285.4,113.6 276.1,113.6 257.8,67.9 266.4,67.9 280.7,105 		"/>
		<polygon class="st0" points="369.5,105.5 399.7,105.5 405,113.6 359.4,113.6 359.4,106.2 390.3,57.6 363.3,57.6 357.2,49.6 
			400.5,49.6 400.5,56.9 		"/>
		<path class="st0" d="M484.1,66.7c5.4,0,9.7,1.7,12.9,5.1c3.2,3.4,4.8,8,4.8,13.8v28.1h-8V86c0-3.7-1-6.6-3-8.6
			c-2-2-4.8-3.1-8.3-3.1c-4,0-7.2,1.2-9.6,3.7c-2.4,2.5-3.7,6.3-3.7,11.4v24.2h-8V67.9h8v6.6C472.6,69.3,477.5,66.7,484.1,66.7"/>
		<path class="st0" d="M182.1,49.6v64h8.5V76.8V49.6H182.1z M221.7,49.6v27.1h-31.1l8,8h23v28.8h8.4v-64H221.7z"/>
		<path class="st0" d="M352.8,90.8c0-6.6-2.1-12.3-6.4-17c-4.2-4.7-9.7-7.1-16.4-7.1c-7.1,0-12.8,2.3-17.3,6.9
			c-4.5,4.6-6.7,10.3-6.7,17.2c0,6.9,2.3,12.7,6.8,17.2c4.5,4.5,10.4,6.8,17.7,6.8c9,0,15.7-3.4,20.1-10.3l-6.8-3.8
			c-2.7,4.4-7.1,6.7-13.2,6.7c-4.3,0-8-1.1-10.9-3.4c-1.6-1.3-3-2.8-3.9-4.6c-1.2-2.2-1.7-4.6-1.7-7.1v-4.8c0.7-4,2.4-7.2,5.2-9.6
			c2.8-2.4,6.3-3.6,10.6-3.6c3.7,0,6.9,1.1,9.6,3.4c2.7,2.3,4.4,5.5,5.1,9.9h-30.5l5.9,6.9h32.4C352.7,93.2,352.8,92,352.8,90.8"/>
	</g>
	<g>
		<defs>
			<path id="SVGID_1_" d="M20.4,116.7l8.8,9.7L73,151.7l39.1-22.6c-29.8,3-60.1-8-81.1-31.1L20.4,116.7z"/>
		</defs>
		<clipPath id="SVGID_2_">
			<use xlink:href="#SVGID_1_"  style="overflow:visible;"/>
		</clipPath>
		<defs>
			<filter id="Adobe_OpacityMaskFilter" filterUnits="userSpaceOnUse" x="-3.6" y="57" width="139.7" height="135.7">
				<feColorMatrix  type="matrix" values="1 0 0 0 0  0 1 0 0 0  0 0 1 0 0  0 0 0 1 0"/>
			</filter>
		</defs>
		<mask maskUnits="userSpaceOnUse" x="-3.6" y="57" width="139.7" height="135.7" id="SVGID_3_">
			<g class="st1">
				
					<linearGradient id="SVGID_4_" gradientUnits="userSpaceOnUse" x1="-5.9555" y1="343.1953" x2="-4.9555" y2="343.1953" gradientTransform="matrix(94.4771 58.4369 58.4369 -94.4771 -19463.7734 32873.793)">
					<stop  offset="0" style="stop-color:#000000"/>
					<stop  offset="2.793300e-03" style="stop-color:#000000"/>
					<stop  offset="0.4721" style="stop-color:#FFFFFF"/>
					<stop  offset="1" style="stop-color:#FFFFFF"/>
				</linearGradient>
				<polygon class="st2" points="45.8,57 136.2,112.9 86.8,192.7 -3.6,136.8 				"/>
			</g>
		</mask>
		
			<linearGradient id="SVGID_5_" gradientUnits="userSpaceOnUse" x1="-5.9555" y1="343.1953" x2="-4.9555" y2="343.1953" gradientTransform="matrix(94.4771 58.4369 58.4369 -94.4771 -19463.7754 32873.793)">
			<stop  offset="0" style="stop-color:#009EFF"/>
			<stop  offset="2.793300e-03" style="stop-color:#009EFF"/>
			<stop  offset="0.4721" style="stop-color:#009EFF"/>
			<stop  offset="1" style="stop-color:#00DBFF"/>
		</linearGradient>
		<polygon class="st3" points="45.8,57 136.2,112.9 86.8,192.7 -3.6,136.8 		"/>
	</g>
	<g>
		<defs>
			<path id="SVGID_6_" d="M63.7,133.9l13.8,15.2l55-31.8V48.6l-12.1-7C122.2,80.9,99.9,117.6,63.7,133.9"/>
		</defs>
		<clipPath id="SVGID_7_">
			<use xlink:href="#SVGID_6_"  style="overflow:visible;"/>
		</clipPath>
		<defs>
			<filter id="Adobe_OpacityMaskFilter_1_" filterUnits="userSpaceOnUse" x="14.4" y="10.1" width="167.4" height="170.6">
				<feColorMatrix  type="matrix" values="1 0 0 0 0  0 1 0 0 0  0 0 1 0 0  0 0 0 1 0"/>
			</filter>
		</defs>
		<mask maskUnits="userSpaceOnUse" x="14.4" y="10.1" width="167.4" height="170.6" id="SVGID_8_">
			<g class="st4">
				
					<linearGradient id="SVGID_9_" gradientUnits="userSpaceOnUse" x1="-3.2141" y1="342.6325" x2="-2.2141" y2="342.6325" gradientTransform="matrix(-88.605 58.1185 58.1185 88.605 -20053.0645 -30107.541)">
					<stop  offset="0" style="stop-color:#FFFFFF"/>
					<stop  offset="0.4274" style="stop-color:#FFFFFF"/>
					<stop  offset="1" style="stop-color:#000000"/>
				</linearGradient>
				<polygon class="st5" points="181.8,116.8 84.4,180.6 14.4,73.9 111.8,10.1 				"/>
			</g>
		</mask>
		
			<linearGradient id="SVGID_10_" gradientUnits="userSpaceOnUse" x1="-3.2141" y1="342.6325" x2="-2.2141" y2="342.6325" gradientTransform="matrix(-88.605 58.1185 58.1185 88.605 -20053.0684 -30107.543)">
			<stop  offset="0" style="stop-color:#FF6DFF"/>
			<stop  offset="0.1066" style="stop-color:#DA60EB"/>
			<stop  offset="0.2501" style="stop-color:#AE50D4"/>
			<stop  offset="0.3619" style="stop-color:#9347C5"/>
			<stop  offset="0.4274" style="stop-color:#8943C0"/>
			<stop  offset="1" style="stop-color:#8943C0"/>
		</linearGradient>
		<polygon class="st6" points="181.8,116.8 84.4,180.6 14.4,73.9 111.8,10.1 		"/>
	</g>
	<g>
		<defs>
			<path id="SVGID_11_" d="M13.6,48.6v68.7l10.8,6.2c-1-38.5,21.1-74.3,56.7-90.3L67,17.8L13.6,48.6z"/>
		</defs>
		<clipPath id="SVGID_12_">
			<use xlink:href="#SVGID_11_"  style="overflow:visible;"/>
		</clipPath>
		<defs>
			<filter id="Adobe_OpacityMaskFilter_2_" filterUnits="userSpaceOnUse" x="-35" y="-13.2" width="164.6" height="167.7">
				<feColorMatrix  type="matrix" values="1 0 0 0 0  0 1 0 0 0  0 0 1 0 0  0 0 0 1 0"/>
			</filter>
		</defs>
		<mask maskUnits="userSpaceOnUse" x="-35" y="-13.2" width="164.6" height="167.7" id="SVGID_13_">
			<g class="st7">
				
					<linearGradient id="SVGID_14_" gradientUnits="userSpaceOnUse" x1="-5.661" y1="345.0092" x2="-4.661" y2="345.0092" gradientTransform="matrix(88.605 -58.1185 -58.1185 -88.605 20552.457 30342.5859)">
					<stop  offset="0" style="stop-color:#FFFFFF"/>
					<stop  offset="0.4274" style="stop-color:#FFFFFF"/>
					<stop  offset="1" style="stop-color:#000000"/>
				</linearGradient>
				<polygon class="st8" points="-35,49.6 60.8,-13.2 129.6,91.7 33.9,154.5 				"/>
			</g>
		</mask>
		
			<linearGradient id="SVGID_15_" gradientUnits="userSpaceOnUse" x1="-5.661" y1="345.0092" x2="-4.661" y2="345.0092" gradientTransform="matrix(88.605 -58.1185 -58.1185 -88.605 20552.4629 30342.5879)">
			<stop  offset="0" style="stop-color:#FF6DFF"/>
			<stop  offset="0.1066" style="stop-color:#DA60EB"/>
			<stop  offset="0.2501" style="stop-color:#AE50D4"/>
			<stop  offset="0.3619" style="stop-color:#9347C5"/>
			<stop  offset="0.4274" style="stop-color:#8943C0"/>
			<stop  offset="1" style="stop-color:#8943C0"/>
		</linearGradient>
		<polygon class="st9" points="-35,49.6 60.8,-13.2 129.6,91.7 33.9,154.5 		"/>
	</g>
	<g>
		<defs>
			<path id="SVGID_16_" d="M31.6,38.2c30.2-3.4,60.9,7.6,82.1,31l10.7-18.7l-12.5-13.8L73,14.3L31.6,38.2z"/>
		</defs>
		<clipPath id="SVGID_17_">
			<use xlink:href="#SVGID_16_"  style="overflow:visible;"/>
		</clipPath>
		<defs>
			<filter id="Adobe_OpacityMaskFilter_3_" filterUnits="userSpaceOnUse" x="7.1" y="-27.2" width="141.8" height="137.8">
				<feColorMatrix  type="matrix" values="1 0 0 0 0  0 1 0 0 0  0 0 1 0 0  0 0 0 1 0"/>
			</filter>
		</defs>
		<mask maskUnits="userSpaceOnUse" x="7.1" y="-27.2" width="141.8" height="137.8" id="SVGID_18_">
			<g class="st10">
				
					<linearGradient id="SVGID_19_" gradientUnits="userSpaceOnUse" x1="-2.9194" y1="344.3524" x2="-1.9194" y2="344.3524" gradientTransform="matrix(-94.4771 -58.4369 -58.4369 94.4771 19963.166 -32638.7461)">
					<stop  offset="0" style="stop-color:#000000"/>
					<stop  offset="2.793300e-03" style="stop-color:#000000"/>
					<stop  offset="0.4721" style="stop-color:#FFFFFF"/>
					<stop  offset="1" style="stop-color:#FFFFFF"/>
				</linearGradient>
				<polygon class="st11" points="98.7,110.6 7.1,54 57.3,-27.2 148.9,29.5 				"/>
			</g>
		</mask>
		
			<linearGradient id="SVGID_20_" gradientUnits="userSpaceOnUse" x1="-2.9194" y1="344.3524" x2="-1.9194" y2="344.3524" gradientTransform="matrix(-94.4771 -58.4369 -58.4369 94.4771 19963.168 -32638.7461)">
			<stop  offset="0" style="stop-color:#009EFF"/>
			<stop  offset="2.793300e-03" style="stop-color:#009EFF"/>
			<stop  offset="0.4721" style="stop-color:#009EFF"/>
			<stop  offset="1" style="stop-color:#00DBFF"/>
		</linearGradient>
		<polygon class="st12" points="98.7,110.6 7.1,54 57.3,-27.2 148.9,29.5 		"/>
	</g>
	<g>
		<defs>
			<path id="SVGID_21_" d="M89.6,111.3l21,4.4l21.8-38.2V48.6L95.2,27.1C106.2,54,104.6,85,89.6,111.3"/>
		</defs>
		<clipPath id="SVGID_22_">
			<use xlink:href="#SVGID_21_"  style="overflow:visible;"/>
		</clipPath>
		<defs>
			<filter id="Adobe_OpacityMaskFilter_4_" filterUnits="userSpaceOnUse" x="72" y="18.5" width="78.2" height="105.6">
				<feColorMatrix  type="matrix" values="1 0 0 0 0  0 1 0 0 0  0 0 1 0 0  0 0 0 1 0"/>
			</filter>
		</defs>
		<mask maskUnits="userSpaceOnUse" x="72" y="18.5" width="78.2" height="105.6" id="SVGID_23_">
			<g class="st13">
				
					<linearGradient id="SVGID_24_" gradientUnits="userSpaceOnUse" x1="-4.4627" y1="345.3321" x2="-3.4627" y2="345.3321" gradientTransform="matrix(22.8957 -110.1909 -110.1909 -22.8957 38256.8945 7528.77)">
					<stop  offset="0" style="stop-color:#000000"/>
					<stop  offset="8.248800e-02" style="stop-color:#1F1F1F"/>
					<stop  offset="0.2772" style="stop-color:#626262"/>
					<stop  offset="0.4622" style="stop-color:#9A9A9A"/>
					<stop  offset="0.6319" style="stop-color:#C6C6C6"/>
					<stop  offset="0.7835" style="stop-color:#E5E5E5"/>
					<stop  offset="0.9113" style="stop-color:#F8F8F8"/>
					<stop  offset="1" style="stop-color:#FFFFFF"/>
				</linearGradient>
				<polygon class="st14" points="72,112 91.4,18.5 150.2,30.7 130.8,124.2 				"/>
			</g>
		</mask>
		
			<linearGradient id="SVGID_25_" gradientUnits="userSpaceOnUse" x1="-4.4627" y1="345.3321" x2="-3.4627" y2="345.3321" gradientTransform="matrix(22.8957 -110.1909 -110.1909 -22.8957 38256.8945 7528.769)">
			<stop  offset="0" style="stop-color:#9C9EA1"/>
			<stop  offset="0.3043" style="stop-color:#C5C6C8"/>
			<stop  offset="0.5915" style="stop-color:#E5E5E6"/>
			<stop  offset="0.8331" style="stop-color:#F8F8F8"/>
			<stop  offset="1" style="stop-color:#FFFFFF"/>
		</linearGradient>
		<polygon class="st15" points="72,112 91.4,18.5 150.2,30.7 130.8,124.2 		"/>
	</g>
	<g>
		<defs>
			<path id="SVGID_26_" d="M13.6,87.5v29.8l35.1,20.2c-9.9-26.3-8-56.2,6.5-81.7l-21-4.4L13.6,87.5z"/>
		</defs>
		<clipPath id="SVGID_27_">
			<use xlink:href="#SVGID_26_"  style="overflow:visible;"/>
		</clipPath>
		<defs>
			<filter id="Adobe_OpacityMaskFilter_5_" filterUnits="userSpaceOnUse" x="-3.6" y="43.2" width="75.9" height="102.6">
				<feColorMatrix  type="matrix" values="1 0 0 0 0  0 1 0 0 0  0 0 1 0 0  0 0 0 1 0"/>
			</filter>
		</defs>
		<mask maskUnits="userSpaceOnUse" x="-3.6" y="43.2" width="75.9" height="102.6" id="SVGID_28_">
			<g class="st16">
				
					<linearGradient id="SVGID_29_" gradientUnits="userSpaceOnUse" x1="-4.4122" y1="342.128" x2="-3.4122" y2="342.128" gradientTransform="matrix(-22.8957 110.1909 110.1909 22.8957 -37757.5 -7293.7246)">
					<stop  offset="0" style="stop-color:#000000"/>
					<stop  offset="8.248800e-02" style="stop-color:#1F1F1F"/>
					<stop  offset="0.2772" style="stop-color:#626262"/>
					<stop  offset="0.4622" style="stop-color:#9A9A9A"/>
					<stop  offset="0.6319" style="stop-color:#C6C6C6"/>
					<stop  offset="0.7835" style="stop-color:#E5E5E5"/>
					<stop  offset="0.9113" style="stop-color:#F8F8F8"/>
					<stop  offset="1" style="stop-color:#FFFFFF"/>
				</linearGradient>
				<polygon class="st17" points="72.3,55.1 53.4,145.9 -3.6,134 15.3,43.2 				"/>
			</g>
		</mask>
		
			<linearGradient id="SVGID_30_" gradientUnits="userSpaceOnUse" x1="-4.4122" y1="342.128" x2="-3.4122" y2="342.128" gradientTransform="matrix(-22.8957 110.1909 110.1909 22.8957 -37757.5 -7293.7236)">
			<stop  offset="0" style="stop-color:#9C9EA1"/>
			<stop  offset="0.3043" style="stop-color:#C5C6C8"/>
			<stop  offset="0.5915" style="stop-color:#E5E5E6"/>
			<stop  offset="0.8331" style="stop-color:#F8F8F8"/>
			<stop  offset="1" style="stop-color:#FFFFFF"/>
		</linearGradient>
		<polygon class="st18" points="72.3,55.1 53.4,145.9 -3.6,134 15.3,43.2 		"/>
	</g>
	<g>
		<defs>
			<path id="SVGID_31_" d="M60.9,153.5c-1.4,6.5,2.7,13,9.2,14.5c6.5,1.4,13-2.7,14.5-9.2c1.4-6.5-2.7-13-9.2-14.5
				c-0.9-0.2-1.8-0.3-2.6-0.3C67.2,144,62.1,147.9,60.9,153.5"/>
		</defs>
		<clipPath id="SVGID_32_">
			<use xlink:href="#SVGID_31_"  style="overflow:visible;"/>
		</clipPath>
		
			<linearGradient id="SVGID_33_" gradientUnits="userSpaceOnUse" x1="-9.5379" y1="338.4124" x2="-8.5379" y2="338.4124" gradientTransform="matrix(13.0683 20.4895 20.4895 -13.0683 -6743.2759 4763.9751)">
			<stop  offset="0" style="stop-color:#00DBFF"/>
			<stop  offset="0.9022" style="stop-color:#009EFF"/>
			<stop  offset="1" style="stop-color:#009EFF"/>
		</linearGradient>
		<polygon class="st19" points="78.4,131.9 97.6,162.1 67.1,181.6 47.9,151.4 		"/>
	</g>
	<g>
		<defs>
			<path id="SVGID_34_" d="M0.3,119.6c-1.4,6.5,2.7,13,9.2,14.5c6.5,1.4,13-2.7,14.5-9.2c1.4-6.5-2.7-13-9.2-14.5
				c-0.9-0.2-1.8-0.3-2.6-0.3C6.6,110.1,1.5,114,0.3,119.6"/>
		</defs>
		<clipPath id="SVGID_35_">
			<use xlink:href="#SVGID_34_"  style="overflow:visible;"/>
		</clipPath>
		
			<linearGradient id="SVGID_36_" gradientUnits="userSpaceOnUse" x1="0.9623" y1="338.7446" x2="1.9623" y2="338.7446" gradientTransform="matrix(-20.4895 13.0683 13.0683 20.4895 -4384.4263 -6837.126)">
			<stop  offset="0" style="stop-color:#FFFFFF"/>
			<stop  offset="1" style="stop-color:#9C9EA1"/>
		</linearGradient>
		<polygon class="st20" points="37,128.2 6.5,147.7 -12.7,117.5 17.8,98 		"/>
	</g>
	<g>
		<defs>
			<path id="SVGID_37_" d="M123.6,119.8c-1.4,6.5,2.7,13,9.2,14.5c6.5,1.4,13-2.7,14.5-9.2s-2.7-13-9.2-14.5
				c-0.9-0.2-1.8-0.3-2.6-0.3C129.9,110.3,124.9,114.2,123.6,119.8"/>
		</defs>
		<clipPath id="SVGID_38_">
			<use xlink:href="#SVGID_37_"  style="overflow:visible;"/>
		</clipPath>
		
			<linearGradient id="SVGID_39_" gradientUnits="userSpaceOnUse" x1="-9.5379" y1="338.4124" x2="-8.5379" y2="338.4124" gradientTransform="matrix(13.0683 20.4895 20.4895 -13.0683 -6680.5454 4730.2549)">
			<stop  offset="0" style="stop-color:#FF6DFF"/>
			<stop  offset="0.2013" style="stop-color:#DA60EB"/>
			<stop  offset="0.4724" style="stop-color:#AE50D4"/>
			<stop  offset="0.6835" style="stop-color:#9347C5"/>
			<stop  offset="0.8073" style="stop-color:#8943C0"/>
			<stop  offset="1" style="stop-color:#8943C0"/>
		</linearGradient>
		<polygon class="st21" points="141.1,98.2 160.4,128.4 129.9,147.8 110.6,117.6 		"/>
	</g>
	<g>
		<defs>
			<path id="SVGID_40_" d="M63,9.5c-1.4,6.5,2.7,13,9.2,14.5c6.5,1.4,13-2.7,14.5-9.2c1.4-6.5-2.7-13-9.2-14.5
				C76.6,0.1,75.8,0,74.9,0C69.3,0,64.3,3.9,63,9.5"/>
		</defs>
		<clipPath id="SVGID_41_">
			<use xlink:href="#SVGID_40_"  style="overflow:visible;"/>
		</clipPath>
		
			<linearGradient id="SVGID_42_" gradientUnits="userSpaceOnUse" x1="0.663" y1="349.2375" x2="1.663" y2="349.2375" gradientTransform="matrix(-13.0683 -20.4895 -20.4895 13.0683 7245.5122 -4527.7773)">
			<stop  offset="0" style="stop-color:#00DBFF"/>
			<stop  offset="0.9022" style="stop-color:#009EFF"/>
			<stop  offset="1" style="stop-color:#009EFF"/>
		</linearGradient>
		<polygon class="st22" points="69.3,37.6 50,7.4 80.5,-12.1 99.8,18.1 		"/>
	</g>
	<g>
		<defs>
			<path id="SVGID_43_" d="M123.6,43.4c-1.4,6.5,2.7,13,9.2,14.5c6.5,1.4,13-2.7,14.5-9.2c1.4-6.5-2.7-13-9.2-14.5
				c-0.9-0.2-1.8-0.3-2.6-0.3C129.9,33.9,124.9,37.8,123.6,43.4"/>
		</defs>
		<clipPath id="SVGID_44_">
			<use xlink:href="#SVGID_43_"  style="overflow:visible;"/>
		</clipPath>
		
			<linearGradient id="SVGID_45_" gradientUnits="userSpaceOnUse" x1="-9.8372" y1="348.9053" x2="-8.8372" y2="348.9053" gradientTransform="matrix(20.4895 -13.0683 -13.0683 -20.4895 4886.6621 7073.3232)">
			<stop  offset="0" style="stop-color:#FFFFFF"/>
			<stop  offset="1" style="stop-color:#9C9EA1"/>
		</linearGradient>
		<polygon class="st23" points="110.6,41.3 141.1,21.8 160.4,52 129.9,71.4 		"/>
	</g>
	<g>
		<defs>
			<path id="SVGID_46_" d="M0.3,43.3c-1.4,6.5,2.7,13,9.2,14.5c6.5,1.4,13-2.7,14.5-9.2c1.4-6.5-2.7-13-9.2-14.5
				c-0.9-0.2-1.8-0.3-2.6-0.3C6.6,33.7,1.5,37.6,0.3,43.3"/>
		</defs>
		<clipPath id="SVGID_47_">
			<use xlink:href="#SVGID_46_"  style="overflow:visible;"/>
		</clipPath>
		
			<linearGradient id="SVGID_48_" gradientUnits="userSpaceOnUse" x1="0.663" y1="349.2375" x2="1.663" y2="349.2375" gradientTransform="matrix(-13.0683 -20.4895 -20.4895 13.0683 7182.7813 -4494.0571)">
			<stop  offset="0" style="stop-color:#FF6DFF"/>
			<stop  offset="0.2013" style="stop-color:#DA60EB"/>
			<stop  offset="0.4724" style="stop-color:#AE50D4"/>
			<stop  offset="0.6835" style="stop-color:#9347C5"/>
			<stop  offset="0.8073" style="stop-color:#8943C0"/>
			<stop  offset="1" style="stop-color:#8943C0"/>
		</linearGradient>
		<polygon class="st24" points="6.5,71.3 -12.7,41.1 17.8,21.6 37,51.8 		"/>
	</g>
</g>
</svg>
