<svg id="Layer_4" enable-background="new 0 0 24 24" height="512" viewBox="0 0 24 24" width="512" xmlns="http://www.w3.org/2000/svg"><g><path fill="#808080" d="m9 19h-8c-.553 0-1-.448-1-1s.447-1 1-1h8c.553 0 1 .448 1 1s-.447 1-1 1z"/></g><g><path fill="#808080" d="m9 7h-8c-.553 0-1-.448-1-1s.447-1 1-1h8c.553 0 1 .448 1 1s-.447 1-1 1z"/></g><g><path fill="#808080" d="m9 13h-8c-.553 0-1-.448-1-1s.447-1 1-1h8c.553 0 1 .448 1 1s-.447 1-1 1z"/></g><path fill="#808080" d="m17 5v-2.25c0-.298-.177-.568-.45-.688-.097-.041-.198-.062-.3-.062-.186 0-.369.069-.511.2l-3.5 3.25c-.152.142-.239.342-.239.55s.087.408.239.55l3.5 3.25c.219.203.537.255.811.138.273-.12.45-.39.45-.688v-2.25c2.757 0 5 2.243 5 5s-2.243 5-5 5h-4c-.553 0-1 .448-1 1s.447 1 1 1h4c3.859 0 7-3.14 7-7s-3.141-7-7-7z"/></svg>