<?xml version="1.0" encoding="utf-8"?>
<!-- Generator: Adobe Illustrator 21.1.0, SVG Export Plug-In . SVG Version: 6.00 Build 0)  -->
<svg version="1.1" xmlns="http://www.w3.org/2000/svg" xmlns:xlink="http://www.w3.org/1999/xlink" x="0px" y="0px"
	 viewBox="0 0 32 32" style="enable-background:new 0 0 32 32;" xml:space="preserve">
<style type="text/css">
	.st0{fill-opacity:0;}
	.st1{display:none;}
	.st2{display:inline;fill-rule:evenodd;clip-rule:evenodd;fill:none;stroke:#000000;stroke-miterlimit:10;}
	.st3{display:inline;fill:none;stroke:#000000;stroke-miterlimit:10;}
	.st4{fill:none;stroke:#010101;stroke-miterlimit:10;}
	.st5{fill:#010101;}
	.st6{fill:none;stroke:#010101;stroke-linecap:round;stroke-linejoin:round;stroke-miterlimit:10;}
	.st7{display:inline;fill:none;stroke:#010101;stroke-miterlimit:10;}
	.st8{display:inline;fill:none;stroke:#010101;stroke-linejoin:round;stroke-miterlimit:10;}
	.st9{display:inline;}
	.st10{fill:none;stroke:#010101;stroke-linecap:round;stroke-linejoin:round;}
	.st11{fill:none;stroke:#010101;stroke-linecap:round;stroke-linejoin:round;stroke-dasharray:2.3333,2.3333;}
	.st12{display:inline;fill:none;stroke:#010101;stroke-linecap:round;stroke-linejoin:round;stroke-miterlimit:10;}
	.st13{display:inline;fill:#010101;}
</style>
<g id="BG">
	<rect class="st0" width="32" height="32"/>
</g>
<g id="Icons">
	<g id="Search" class="st1">
		<circle class="st2" cx="14.7" cy="14.6" r="8.4"/>
		<line class="st3" x1="20.4" y1="20.5" x2="25.8" y2="25.9"/>
	</g>
	<g id="My_Dashboard">
		<path class="st4" d="M27,25H5c-0.6,0-1-0.5-1-1V8c0-0.6,0.4-1,1-1h22c0.5,0,1,0.4,1,1v16C28,24.5,27.5,25,27,25z"/>
		<line class="st4" x1="3.5" y1="10.9" x2="28" y2="10.9"/>
		<circle class="st5" cx="6.4" cy="9.1" r="0.6"/>
		<circle class="st5" cx="8.4" cy="9.1" r="0.6"/>
		<circle class="st5" cx="10.4" cy="9.1" r="0.6"/>
		<line class="st6" x1="26.1" y1="9.1" x2="21.1" y2="9.1"/>
		<line class="st6" x1="24.3" y1="16.5" x2="17.3" y2="16.5"/>
		<line class="st6" x1="20.3" y1="18.5" x2="17.3" y2="18.5"/>
		<path class="st4" d="M10.1,15.1c-1.9,0-3.5,1.5-3.5,3.4s1.6,3.4,3.5,3.4s3.5-1.5,3.5-3.4h-3.5V15.1z"/>
	</g>
	<g id="My_notification" class="st1">
		<path class="st3" d="M18,23c0.1,0.2,0.1,0.4,0.1,0.6c0,1.1-0.9,1.9-2.1,1.9s-2.1-0.9-2.1-1.9c0-0.2,0-0.4,0.1-0.6"/>
		<path class="st3" d="M15,9.2c0.3-0.1,0.6-0.1,1-0.1c0.3,0,0.6,0,1,0.1c0.4-0.3,0.6-0.7,0.6-1.2c0-0.8-0.7-1.5-1.6-1.5
			S14.4,7.2,14.4,8C14.4,8.5,14.7,8.9,15,9.2z"/>
		<path class="st3" d="M23,23c0.9,0,1.7-0.7,1.7-1.6c0-0.6-0.3-1-0.8-1.3l0,0c-1.5-0.9-2.6-2.5-2.6-4.4c0-0.3,0-0.6,0.1-0.9l0,0
			c0-0.2,0-0.4,0-0.6c0-2.8-2.5-5.1-5.5-5.1s-5.5,2.3-5.5,5.1c0,0.2,0,0.4,0,0.6l0,0c0.1,0.3,0.1,0.6,0.1,0.9c0,1.8-1,3.4-2.6,4.4
			l0,0c-0.5,0.3-0.8,0.8-0.8,1.3C7.3,22.3,8,23,9,23H23z"/>
	</g>
	<g id="My_Reports" class="st1">
		<path class="st7" d="M23.1,29H8c-0.6,0-1-0.5-1-1v-6.3"/>
		<path class="st7" d="M7,9V4c0-0.5,0.5-1,1-1h19c0.5,0,1,0.5,1,1v20.1"/>
		<path class="st8" d="M23.2,29v-3.9c0-0.5,0.4-1,1-1H28L23.2,29z"/>
		<path class="st4" d="M27,21H5c-0.6,0-1-0.5-1-1V4c0-0.5,0.4-1,1-1h22c0.5,0,1,0.5,1,1v16C28,20.5,27.5,21,27,21z"/>
		<line class="st7" x1="17" y1="8" x2="25.5" y2="8"/>
		<g class="st9">
			<g>
				<line class="st10" x1="21" y1="22.8" x2="19" y2="22.8"/>
				<line class="st11" x1="16.7" y1="22.8" x2="13.2" y2="22.8"/>
				<line class="st10" x1="12" y1="22.8" x2="10" y2="22.8"/>
			</g>
		</g>
		<g class="st9">
			<g>
				<line class="st10" x1="21" y1="25.8" x2="19" y2="25.8"/>
				<line class="st11" x1="16.7" y1="25.8" x2="13.2" y2="25.8"/>
				<line class="st10" x1="12" y1="25.8" x2="10" y2="25.8"/>
			</g>
		</g>
		<g>
			<g class="st9">
				<line class="st10" x1="21" y1="26.8" x2="19" y2="26.8"/>
				<line class="st11" x1="16.7" y1="26.8" x2="13.2" y2="26.8"/>
				<line class="st10" x1="12" y1="26.8" x2="10" y2="26.8"/>
			</g>
		</g>
		<path class="st7" d="M24,13h-6c-0.6,0-1-0.4-1-1V7c0-0.6,0.4-1,1-1h6c0.6,0,1,0.4,1,1v5C25,12.5,24.5,13,24,13z"/>
		<path class="st7" d="M7,18H6c-0.6,0-1-0.4-1-1v-2c0-0.6,0.4-1,1-1h1c0.6,0,1,0.4,1,1v2C8,17.5,7.5,18,7,18z"/>
		<path class="st7" d="M10,18H9c-0.6,0-1-0.4-1-1v-4c0-0.6,0.4-1,1-1h1c0.6,0,1,0.4,1,1v4C11,17.5,10.5,18,10,18z"/>
		<path class="st7" d="M13,18h-1c-0.6,0-1-0.4-1-1v-7c0-0.6,0.4-1,1-1h1c0.6,0,1,0.4,1,1v7C14,17.5,13.5,18,13,18z"/>
	</g>
	<g id="My_Member" class="st1">
		<ellipse class="st7" cx="15.9" cy="11.1" rx="4.6" ry="4.6"/>
		<path class="st12" d="M20.3,16.9c-1.3-0.7-2.8-1.1-4.4-1.1c-4.5,0-8.2,3.3-9.1,7.8c-0.2,1,0.5,2,1.5,2h9.7"/>
		<line class="st12" x1="21.8" y1="25.5" x2="21.8" y2="18.5"/>
		<line class="st12" x1="18.5" y1="22" x2="25.2" y2="22"/>
	</g>
	<g id="My_Invities" class="st1">
		<g class="st9">
			<g>
				<ellipse class="st4" cx="16" cy="7.1" rx="2.6" ry="2.5"/>
				<path class="st4" d="M20.3,14.7c0.6,0,1-0.5,0.9-1c-0.5-2.3-2.6-4.1-5.2-4.1s-4.7,1.7-5.2,4.1c-0.1,0.5,0.3,1,0.9,1H20.3z"/>
			</g>
			<g>
				<ellipse class="st4" cx="6.7" cy="19.8" rx="2.6" ry="2.5"/>
				<path class="st4" d="M11,27.4c0.6,0,1-0.5,0.9-1c-0.5-2.3-2.6-4.1-5.2-4.1S2,24.1,1.5,26.4c-0.1,0.5,0.3,1,0.9,1H11z"/>
			</g>
			<g>
				<ellipse class="st4" cx="25.3" cy="19.8" rx="2.6" ry="2.5"/>
				<path class="st4" d="M29.6,27.4c0.6,0,1-0.5,0.9-1c-0.5-2.3-2.6-4.1-5.2-4.1s-4.7,1.7-5.2,4.1c-0.1,0.5,0.3,1,0.9,1H29.6z"/>
			</g>
		</g>
		<line class="st7" x1="16" y1="16.2" x2="16" y2="20"/>
		<polyline class="st7" points="13.1,22.7 16,20 18.9,22.7 		"/>
	</g>
	<g id="My_Feedback" class="st1">
		<g class="st9">
			<path class="st6" d="M13.8,21.7c4.5-1.6,5.2-6,3.6-7.4c-1.4-1.2-3.6,0.4-3.6,0.4h0c0,0-2.2-1.7-3.6-0.4
				C8.7,15.7,9.3,20.1,13.8,21.7L13.8,21.7z"/>
		</g>
		<g class="st9">
			<path class="st6" d="M2.9,15v-0.9c0-2.2,1.8-4,4-4h13.8c2.2,0,4,1.8,4,4v6.7c0,2.2-1.8,4-4,4l-1.7,0"/>
			<path class="st6" d="M17,24.8l-2.2,0c-0.3,0-0.5,0.1-0.7,0.3l-1.7,1.8c-0.4,0.4-1,0.4-1.4,0l-1.7-1.8c-0.2-0.2-0.4-0.3-0.7-0.3
				l-1.5,0c-2.2,0-4-1.8-4-4v-3.7"/>
		</g>
		<g class="st9">
			<path class="st6" d="M20.8,4.8h4.3c2.2,0,4,1.8,4,4v6.7c0,2.2-1.8,4-4,4l-0.4,0"/>
			<path class="st6" d="M7.3,10.1V8.8c0-2.2,1.8-4,4-4h7.4"/>
		</g>
	</g>
	<g id="Help_1_" class="st1">
		<circle class="st13" cx="16" cy="22" r="0.9"/>
		<circle class="st12" cx="16" cy="16" r="11.5"/>
		<path id="Help" class="st12" d="M12.8,13.8c0-1.8,1.4-3.2,3.2-3.2s3.2,1.4,3.2,3.2S17.8,17,16,17v2.7"/>
	</g>
</g>
</svg>
