<?xml version="1.0" encoding="utf-8"?>
<!-- Generator: Adobe Illustrator 21.1.0, SVG Export Plug-In . SVG Version: 6.00 Build 0)  -->
<svg version="1.1" id="Layer_1" xmlns="http://www.w3.org/2000/svg" xmlns:xlink="http://www.w3.org/1999/xlink" x="0px" y="0px"
	 viewBox="0 0 32 32" style="enable-background:new 0 0 32 32;" xml:space="preserve">
<style type="text/css">
	.st0{fill:none;stroke:#010101;stroke-linecap:round;stroke-linejoin:round;stroke-miterlimit:10;}
</style>
<g id="My_Feedback">
	<g>
		<path class="st0" d="M13.8,21.7c4.5-1.6,5.2-6,3.6-7.4c-1.4-1.2-3.6,0.4-3.6,0.4l0,0c0,0-2.2-1.7-3.6-0.4
			C8.7,15.7,9.3,20.1,13.8,21.7L13.8,21.7z"/>
	</g>
	<g>
		<path class="st0" d="M2.9,15v-0.9c0-2.2,1.8-4,4-4h13.8c2.2,0,4,1.8,4,4v6.7c0,2.2-1.8,4-4,4H19"/>
		<path class="st0" d="M17,24.8h-2.2c-0.3,0-0.5,0.1-0.7,0.3l-1.7,1.8c-0.4,0.4-1,0.4-1.4,0l-1.7-1.8c-0.2-0.2-0.4-0.3-0.7-0.3H7.1
			c-2.2,0-4-1.8-4-4v-3.7"/>
	</g>
	<g>
		<path class="st0" d="M20.8,4.8h4.3c2.2,0,4,1.8,4,4v6.7c0,2.2-1.8,4-4,4h-0.4"/>
		<path class="st0" d="M7.3,10.1V8.8c0-2.2,1.8-4,4-4h7.4"/>
	</g>
</g>
</svg>
