<?xml version="1.0" encoding="utf-8"?>
<!-- Generator: Adobe Illustrator 21.1.0, SVG Export Plug-In . SVG Version: 6.00 Build 0)  -->
<svg version="1.1" id="Layer_1" xmlns="http://www.w3.org/2000/svg" xmlns:xlink="http://www.w3.org/1999/xlink" x="0px" y="0px"
	 viewBox="0 0 32 32" style="enable-background:new 0 0 32 32;" xml:space="preserve">
<style type="text/css">
	.st0{fill:none;stroke:#010101;stroke-miterlimit:10;}
</style>
<g id="My_Invities">
	<g>
		<g>
			<ellipse class="st0" cx="16" cy="7.1" rx="2.6" ry="2.5"/>
			<path class="st0" d="M20.3,14.7c0.6,0,1-0.5,0.9-1c-0.5-2.3-2.6-4.1-5.2-4.1s-4.7,1.7-5.2,4.1c-0.1,0.5,0.3,1,0.9,1
				C11.7,14.7,20.3,14.7,20.3,14.7z"/>
		</g>
		<g>
			<ellipse class="st0" cx="6.7" cy="19.8" rx="2.6" ry="2.5"/>
			<path class="st0" d="M11,27.4c0.6,0,1-0.5,0.9-1c-0.5-2.3-2.6-4.1-5.2-4.1S2,24.1,1.5,26.4c-0.1,0.5,0.3,1,0.9,1H11z"/>
		</g>
		<g>
			<ellipse class="st0" cx="25.3" cy="19.8" rx="2.6" ry="2.5"/>
			<path class="st0" d="M29.6,27.4c0.6,0,1-0.5,0.9-1c-0.5-2.3-2.6-4.1-5.2-4.1s-4.7,1.7-5.2,4.1c-0.1,0.5,0.3,1,0.9,1H29.6z"/>
		</g>
	</g>
	<line class="st0" x1="16" y1="16.2" x2="16" y2="20"/>
	<polyline class="st0" points="13.1,22.7 16,20 18.9,22.7 	"/>
</g>
</svg>
