<?xml version="1.0" encoding="utf-8"?>
<!-- Generator: Adobe Illustrator 21.1.0, SVG Export Plug-In . SVG Version: 6.00 Build 0)  -->
<svg version="1.1" id="Layer_1" xmlns="http://www.w3.org/2000/svg" xmlns:xlink="http://www.w3.org/1999/xlink" x="0px" y="0px"
	 viewBox="0 0 32 32" style="enable-background:new 0 0 32 32;" xml:space="preserve">
<style type="text/css">
	.st0{fill:none;stroke:#000000;stroke-miterlimit:10;}
</style>
<g id="My_notification">
	<path class="st0" d="M18,23c0.1,0.2,0.1,0.4,0.1,0.6c0,1.1-0.9,1.9-2.1,1.9s-2.1-0.9-2.1-1.9c0-0.2,0-0.4,0.1-0.6"/>
	<path class="st0" d="M15,9.2c0.3-0.1,0.6-0.1,1-0.1c0.3,0,0.6,0,1,0.1c0.4-0.3,0.6-0.7,0.6-1.2c0-0.8-0.7-1.5-1.6-1.5
		S14.4,7.2,14.4,8C14.4,8.5,14.7,8.9,15,9.2z"/>
	<path class="st0" d="M23,23c0.9,0,1.7-0.7,1.7-1.6c0-0.6-0.3-1-0.8-1.3l0,0c-1.5-0.9-2.6-2.5-2.6-4.4c0-0.3,0-0.6,0.1-0.9l0,0
		c0-0.2,0-0.4,0-0.6c0-2.8-2.5-5.1-5.5-5.1s-5.5,2.3-5.5,5.1c0,0.2,0,0.4,0,0.6l0,0c0.1,0.3,0.1,0.6,0.1,0.9c0,1.8-1,3.4-2.6,4.4
		l0,0c-0.5,0.3-0.8,0.8-0.8,1.3C7.3,22.3,8,23,9,23H23z"/>
</g>
</svg>
