<svg id="Solid" height="512" viewBox="0 0 512 512" width="512" xmlns="http://www.w3.org/2000/svg"><path fill="#808080" d="m392 112h28.687l-68.687-68.687v28.687a40.045 40.045 0 0 0 40 40z"/><path fill="#808080" d="m336 72v-40h-216a40.045 40.045 0 0 0 -40 40v280h352v-224h-40a56.064 56.064 0 0 1 -56-56zm48 224a8 8 0 0 1 -8 8h-240a8 8 0 0 1 -8-8v-144a8 8 0 0 1 8-8h240a8 8 0 0 1 8 8z"/><path d="m304 160h64v32h-64z"/><path fill="#808080" d="m80 440a40.045 40.045 0 0 0 40 40h272a40.045 40.045 0 0 0 40-40v-72h-352zm240-8a24 24 0 0 1 0-48h16a8 8 0 0 1 0 16h-16a8 8 0 0 0 0 16 24 24 0 0 1 0 48h-16a8 8 0 0 1 0-16h16a8 8 0 0 0 0-16zm-88-40a8 8 0 0 1 16 0v56h24a8 8 0 0 1 0 16h-32a8 8 0 0 1 -8-8zm-63.155 3.578a8 8 0 0 1 14.31-7.156l8.845 17.69 8.845-17.69a8 8 0 0 1 14.31 7.156l-14.211 28.422 14.211 28.422a8 8 0 1 1 -14.31 7.156l-8.845-17.69-8.845 17.69a8 8 0 0 1 -14.31-7.156l14.211-28.422z"/><path fill="#808080" d="m304 208h64v32h-64z"/><path fill="#808080" d="m304 256h64v32h-64z"/><path fill="#808080" d="m224 160h64v32h-64z"/><path fill="#808080" d="m144 256h64v32h-64z"/><path fill="#808080" d="m144 160h64v32h-64z"/><path fill="#808080" d="m144 208h64v32h-64z"/><path fill="#808080" d="m224 208h64v32h-64z"/><path fill="#808080" d="m224 256h64v32h-64z"/></svg>