<svg xmlns="http://www.w3.org/2000/svg" width="95.679" height="35.18" viewBox="0 0 95.679 35.18">
  <g id="Layer_x0020_1" transform="translate(0 0)">
    <g id="_2242188726576" transform="translate(0 0)">
      <path id="Path_1650" data-name="Path 1650" d="M6380.65,7143.982v-.534h-26.17v.534h1.263a3.23,3.23,0,0,0,.916-.113,7.4,7.4,0,0,1,1.375-.152h7.22s.383.038,1.472.1a4.852,4.852,0,0,0,1.451-.058h3.115a9.291,9.291,0,0,1,1.126.039c.516.057,1.28.188,1.28.188Z" transform="translate(-6354.479 -7143.449)" fill="#0096db" fill-rule="evenodd"/>
      <path id="Path_1651" data-name="Path 1651" d="M6380.647,7320.879v-.63h-5.365a5.386,5.386,0,0,0-.823.039l-4.24-.039a6.739,6.739,0,0,1-1.528.152c-.535-.057-1.339-.152-1.339-.152a5.4,5.4,0,0,0-.821,0c-.362.039-.9.152-.9.152h-7.7a2.074,2.074,0,0,1-.651,0,5.187,5.187,0,0,1-.668-.152h-2.138v.63h2.425a3.3,3.3,0,0,0,.725-.151,2.337,2.337,0,0,1,.8-.076h6.875a1.363,1.363,0,0,1,.536.112,1.265,1.265,0,0,0,.516.115h2.063l1.854-.324h4.146l.875.058a3.881,3.881,0,0,1,1.129.173,3.067,3.067,0,0,0,1.24.094Z" transform="translate(-6354.479 -7319.237)" fill="#0096db" fill-rule="evenodd"/>
      <path id="Path_1652" data-name="Path 1652" d="M6380.65,7514.037v-.689h-2.809a1.828,1.828,0,0,1-.782.133c-.592.021-5.827,0-5.827,0a.815.815,0,0,1-.574-.019,7.45,7.45,0,0,0-.763-.173h-3.439l-.955.23h-6.342s-.077.057-.556-.058a4.531,4.531,0,0,0-.935-.114h-3.189v.689h3.189a4.6,4.6,0,0,0,.8-.1,6.345,6.345,0,0,1,.877-.136h6.171a1.01,1.01,0,0,1,.439.117,2.214,2.214,0,0,0,.745.115h3.247a2.015,2.015,0,0,0,.688-.1,3.214,3.214,0,0,1,.744-.154h5.407a1.079,1.079,0,0,1,.61.1,2.024,2.024,0,0,0,.688.155Z" transform="translate(-6354.479 -7511.207)" fill="#0096db" fill-rule="evenodd"/>
      <path id="Path_1653" data-name="Path 1653" d="M6380.649,7731.454v-.973h-2.5a.9.9,0,0,0-.5.228c-.173.19-.668.152-.668.152h-5.56s-.5-.152-.84-.268a3.888,3.888,0,0,0-.937-.112h-2.961a1.178,1.178,0,0,0-.555.228,1.149,1.149,0,0,1-.668.19h-5.979s.02.076-.573-.172a3.019,3.019,0,0,0-1.05-.246h-3.382v.973h3.8a1.513,1.513,0,0,0,.744-.134,1.428,1.428,0,0,1,.67-.152h5.77a1.522,1.522,0,0,1,.516.173,2.084,2.084,0,0,0,.745.113h3.323a2.135,2.135,0,0,0,.879-.113,2.073,2.073,0,0,1,.593-.211h5.215a1.58,1.58,0,0,1,.669.17,1.776,1.776,0,0,0,.765.154Z" transform="translate(-6354.479 -7727.176)" fill="#0096db" fill-rule="evenodd"/>
      <path id="Path_1654" data-name="Path 1654" d="M6380.649,7989.271v-1.011h-2.578a2.03,2.03,0,0,0-.726.133,2.075,2.075,0,0,1-.955.21c-.459.021-5.272,0-5.272,0a1.842,1.842,0,0,1-.63-.134,4.357,4.357,0,0,0-.708-.209h-3.189a1.965,1.965,0,0,0-.611.152,2.839,2.839,0,0,1-.765.172h-5.6a2.137,2.137,0,0,1-.479-.172,1.718,1.718,0,0,0-.63-.152h-4.031v1.011h3.935a.87.87,0,0,0,.67-.209.889.889,0,0,1,.725-.172s4.892-.019,5.444,0,.765.381,1.414.381h2.521c.649,0,.88-.4,1.4-.381s5.521,0,5.521,0a2.37,2.37,0,0,1,.63.075c.172.077.707.306.707.306Z" transform="translate(-6354.479 -7983.503)" fill="#0096db" fill-rule="evenodd"/>
      <path id="Path_1655" data-name="Path 1655" d="M6380.65,8249.655h-6.725s-1.947-.306-2.845-.459a7.289,7.289,0,0,0-1.968-.171,4.151,4.151,0,0,0-1.757.343,2.5,2.5,0,0,1-.879.1,8.217,8.217,0,0,0-1.185-.363c-.5-.039-5.044-.021-5.044-.021a5.527,5.527,0,0,0-.878.309,4.145,4.145,0,0,1-.783.266h-4.106v-1.2h3.782a5.311,5.311,0,0,1,1.087.172,1.854,1.854,0,0,0,.65.191l5.253-.021a2.226,2.226,0,0,0,.612-.152,4.009,4.009,0,0,1,.86-.19h1.508a5.514,5.514,0,0,1,1.126.151c.459.136,2.216.288,2.791.439a5.431,5.431,0,0,0,2.043.058,8.413,8.413,0,0,0,1.815-.439,4.352,4.352,0,0,1,1.892-.209h2.751Z" transform="translate(-6354.479 -8242.206)" fill="#0096db" fill-rule="evenodd"/>
      <path id="Path_1656" data-name="Path 1656" d="M6380.65,8549.614v-1.395h-6.438a25.093,25.093,0,0,1-2.884.535,7.491,7.491,0,0,1-2.37-.114,4.118,4.118,0,0,0-1.693-.344s-1.3.146-1.744.265a1.964,1.964,0,0,1-.765.06l-4.833.02s-.4-.116-.82-.27a2.727,2.727,0,0,0-.823-.151h-3.8v1.395h3.036a3.524,3.524,0,0,0,1.472-.23,2.643,2.643,0,0,1,1.127-.285h4.66a3.366,3.366,0,0,1,1.108.209,4.981,4.981,0,0,0,1.089.307h1.586a6.327,6.327,0,0,0,1.546-.362,7.021,7.021,0,0,1,1.74-.328,23.034,23.034,0,0,1,2.522-.266,9.3,9.3,0,0,1,2.5.419,4.536,4.536,0,0,0,1.643.537Z" transform="translate(-6354.479 -8540.312)" fill="#0096db" fill-rule="evenodd"/>
      <path id="Path_1657" data-name="Path 1657" d="M6380.649,8882.481V8880.8h-1.354a5.121,5.121,0,0,0-1.415.381c-.84.346-1.108.155-1.108.172s-4.259,0-4.259,0a4.883,4.883,0,0,1-1.682-.266,5.547,5.547,0,0,0-1.776-.287h-1.967s-.686.123-1.624.4a3.239,3.239,0,0,1-1.355.19h-3.63a1.9,1.9,0,0,1-.881-.287,2.422,2.422,0,0,0-1.031-.3h-4.087v1.682h2.77a4.187,4.187,0,0,0,1.719-.44,2.238,2.238,0,0,1,1.415-.266l3.628-.021a13.057,13.057,0,0,1,1.548.343c.408.19.974.384.974.384h3.058a2.6,2.6,0,0,0,1.528-.362,2.711,2.711,0,0,1,1.623-.344l4.03-.039a8.574,8.574,0,0,1,1.948.248,4.513,4.513,0,0,0,.822.325A2.122,2.122,0,0,0,6380.649,8882.481Z" transform="translate(-6354.479 -8871.021)" fill="#0096db" fill-rule="evenodd"/>
      <path id="Path_1658" data-name="Path 1658" d="M6380.649,9257.051v-1.911a3.371,3.371,0,0,0-1.069,0,6.718,6.718,0,0,1-2.674.671,20.957,20.957,0,0,1-3.668-.039,3.9,3.9,0,0,1-1.547-.4,2.823,2.823,0,0,0-1.605-.23h-2.77a8.943,8.943,0,0,0-1.528.27,4.806,4.806,0,0,1-1.661.362c-.727,0-3.229.02-3.229.02a4.926,4.926,0,0,1-1.72-.287,5.193,5.193,0,0,0-1.451-.364h-3.248v1.911s1.854-.02,2.063,0a5.659,5.659,0,0,0,1.911-.42,5.388,5.388,0,0,1,1.8-.306l3.592-.074a4.373,4.373,0,0,1,1.947.38,3.363,3.363,0,0,0,1.548.42h1.968a7.16,7.16,0,0,0,2.426-.42,4.694,4.694,0,0,1,1.967-.364l1.738-.055a8.809,8.809,0,0,1,2.331.21,4.258,4.258,0,0,0,1.719.629C6380.191,9257.068,6380.649,9257.051,6380.649,9257.051Z" transform="translate(-6354.479 -9243.201)" fill="#0096db" fill-rule="evenodd"/>
      <path id="Path_1659" data-name="Path 1659" d="M6354.489,9687.849s1.641-.256,3.65-.745a20.019,20.019,0,0,1,4.105-.535c.325,0,2.6-.055,3.135.329a3.523,3.523,0,0,0,2.52.951c1.338-.057,1.929-1.3,3.917-1.24a13,13,0,0,1,4.24.518,15.924,15.924,0,0,0,4.6.611v-2.561s-.629-.192-2.481.688a6.009,6.009,0,0,1-3.65.438,14.286,14.286,0,0,1-2.865-.327c-.687-.268-1.28-.819-1.988-.8s-3.093.077-3.954.592a2.725,2.725,0,0,1-1.814.3h-.917s-1.758.095-2.444.151a6.046,6.046,0,0,1-3.1-.684c-1.165-.612-2.637-.213-2.961-.364Z" transform="translate(-6354.489 -9670.849)" fill="#0096db" fill-rule="evenodd"/>
      <path id="Path_1660" data-name="Path 1660" d="M6380.65,10208.059v9.02h-26.17v-9.02a1.992,1.992,0,0,1,.917,0,1.551,1.551,0,0,1,.516.344,4.194,4.194,0,0,0,2.215.879,23.13,23.13,0,0,0,3.439-.057s2.006-.287,3.019-.5a5.542,5.542,0,0,1,2.96.078,5.324,5.324,0,0,0,3.5.592c2.388-.191,3.21-1.359,4.928-1.529A17.862,17.862,0,0,1,6380.65,10208.059Z" transform="translate(-6354.479 -10190.538)" fill="#0096db" fill-rule="evenodd"/>
    </g>
    <path id="Path_1661" data-name="Path 1661" d="M11832.72,7193.952c0,1.551,0,2.884-.081,3.589-.07.489-.153.86-.491.926a2.723,2.723,0,0,1-.607.067c-.2,0-.27.053-.27.136,0,.119.121.169.338.169.335,0,.778-.034,1.164-.034.405-.016.776-.016.96-.016.252,0,.756.016,1.265.05.487.017.974.049,1.178.049,3.1,0,4.5-1.87,4.5-3.673,0-1.97-1.684-3.167-3.067-3.64a3.66,3.66,0,0,0,1.721-2.949c0-.893-.539-2.526-3.59-2.526-.57,0-1.228.05-2.055.05-.337,0-1.4-.05-2.29-.05-.252,0-.373.032-.373.15s.1.152.287.152a3.372,3.372,0,0,1,.658.052c.555.117.69.388.723.96.033.538.033,1.01.033,3.571Zm2.025-6.84c0-.185.031-.254.149-.287a2.668,2.668,0,0,1,.555-.034c1.451,0,2.106,1.483,2.106,2.613a2.2,2.2,0,0,1-.688,1.785,1.709,1.709,0,0,1-1.212.32,4.216,4.216,0,0,1-.794-.049c-.065-.018-.116-.053-.116-.187Zm3.855,8.864a1.961,1.961,0,0,1-2.036,2.157,3.038,3.038,0,0,1-1.231-.2c-.537-.218-.588-.505-.588-1.616v-4c0-.083.031-.116.1-.116.252,0,.421,0,.726.017a2.421,2.421,0,0,1,1.4.4A4.01,4.01,0,0,1,11838.6,7195.976Z" transform="translate(-11800.187 -7185.86)" fill="#2b2a29"/>
    <path id="_1" data-name="1" d="M13930.957,7157.41a9.7,9.7,0,0,0,3.031-.389.6.6,0,0,0,.439-.488,15.738,15.738,0,0,0,.369-2.24c0-.136-.031-.254-.148-.254-.135,0-.168.069-.221.337a2.806,2.806,0,0,1-.572,1.111c-.674.777-1.586.946-3.082.946a6.3,6.3,0,0,1-3.76-10.363,4.388,4.388,0,0,1,3.17-1.045,5.021,5.021,0,0,1,3.42,1.045,2.432,2.432,0,0,1,.658,1.549c0,.235.031.37.166.37.15,0,.184-.135.2-.387.033-.337.018-1.264.049-1.819.037-.59.086-.792.086-.927,0-.1-.068-.185-.252-.2-.51-.05-1.047-.2-1.684-.287a16.79,16.79,0,0,0-2.447-.167,7.345,7.345,0,0,0-5.322,1.784,6.676,6.676,0,0,0,.117,9.588A8.425,8.425,0,0,0,13930.957,7157.41Z" transform="translate(-13880.481 -7144.196)" fill="#2b2a29"/>
    <path id="_2" data-name="2" d="M16184.453,7152.285c0,1.55,0,2.881-.084,3.589-.049.488-.152.858-.49.927a2.753,2.753,0,0,1-.6.066c-.205,0-.271.05-.271.136,0,.116.117.169.336.169.676,0,1.734-.053,2.125-.053.471,0,1.529.053,2.641.053.188,0,.322-.053.322-.169,0-.085-.082-.136-.27-.136a7.256,7.256,0,0,1-.859-.066c-.5-.069-.6-.439-.656-.911-.084-.725-.084-2.056-.084-3.606v-6.908l2.121.052c1.5.033,1.955.5,1.99.943l.016.186c.02.252.049.336.188.336.1,0,.133-.1.15-.271,0-.437.053-1.6.053-1.954,0-.252-.02-.354-.139-.354a4.517,4.517,0,0,0-.455.084,7.986,7.986,0,0,1-1.164.084h-6.67c-.553,0-1.2-.034-1.684-.084a3.959,3.959,0,0,1-.727-.2c-.1,0-.152.1-.2.321-.033.132-.355,1.667-.355,1.937,0,.185.033.27.152.27s.152-.068.189-.2a1.87,1.87,0,0,1,.285-.589c.252-.37.656-.454,1.635-.49l2.508-.066Z" transform="translate(-16124.37 -7144.193)" fill="#2b2a29"/>
    <path id="Path_1662" data-name="Path 1662" d="M11832.521,9743.858c0,1.434,0,2.663-.079,3.316-.062.449-.138.793-.449.854a2.532,2.532,0,0,1-.562.063c-.187,0-.247.044-.247.125,0,.107.109.156.309.156.313,0,.719-.033,1.076-.033.373-.016.715-.016.886-.016.391,0,.934.049,1.525.095s1.228.092,1.789.092a7.09,7.09,0,0,0,5.213-1.837,6.169,6.169,0,0,0,1.7-4.34,5.547,5.547,0,0,0-1.511-3.952c-1.7-1.773-4.292-1.773-6.238-1.773-.934,0-1.916.043-2.4.043-.437,0-1.418-.043-2.24-.043-.234,0-.345.028-.345.14s.095.141.266.141a3.244,3.244,0,0,1,.6.046c.514.109.643.359.671.888.031.5.031.934.031,3.3Zm1.944-2.986c0-1.229,0-2.582.018-3.112a.282.282,0,0,1,.187-.312,4.086,4.086,0,0,1,1.013-.109,6.163,6.163,0,0,1,4.417,1.557,5.284,5.284,0,0,1,1.494,3.891,4.908,4.908,0,0,1-1.306,3.873,5,5,0,0,1-3.582,1.123c-1.229,0-1.835-.327-2.036-.623a3.4,3.4,0,0,1-.172-1.184c-.015-.3-.032-1.5-.032-3.144Z" transform="translate(-11800.116 -9722.011)" fill="#2b2a29"/>
    <path id="_1-2" data-name="1" d="M14319.668,10055.044c0,1.277,0,2.334-.063,2.878-.044.39-.125.576-.4.638a2.062,2.062,0,0,1-.482.048c-.174,0-.22.077-.22.139,0,.094.095.14.264.14.55,0,1.483-.046,1.791-.046.374,0,1.309.046,2.211.046.154,0,.264-.046.264-.14,0-.062-.062-.139-.217-.139a5.263,5.263,0,0,1-.7-.048c-.4-.062-.5-.266-.543-.623-.06-.559-.06-1.615-.06-2.893v-2.335c0-2.008,0-2.381.028-2.8.031-.467.139-.653.511-.714a1.789,1.789,0,0,1,.408-.049c.138,0,.215-.028.215-.153,0-.079-.107-.109-.276-.109-.53,0-1.416.03-1.763.03-.384,0-1.317-.03-1.832-.03-.22,0-.327.03-.327.109,0,.125.074.153.215.153a1.713,1.713,0,0,1,.5.063c.294.095.438.248.467.7.016.421.016.794.016,2.8Z" transform="translate(-14273.635 -10032.523)" fill="#2b2a29"/>
    <path id="_2-2" data-name="2" d="M15373.084,10023.624c0-.657,0-1.186.012-1.592.018-.464.158-.65.533-.712a1.812,1.812,0,0,1,.369-.049.162.162,0,0,0,.176-.14c0-.109-.1-.123-.283-.123-.451,0-1.166.031-1.6.031-.408,0-1.391-.031-2.1-.031-.189,0-.3.014-.3.123,0,.079.092.14.219.14a2.42,2.42,0,0,1,.527.049c.436.123.576.263.592.712.016.406.016.905.016,1.557v1.217a.444.444,0,0,1-.264.467,2.281,2.281,0,0,1-.967.138,4.591,4.591,0,0,1-4.76-4.916,3.535,3.535,0,0,1,3.906-4,4.257,4.257,0,0,1,2.973,1.011,1.8,1.8,0,0,1,.467,1.09c.016.107.045.171.137.171.111,0,.191-.095.191-.3a18.126,18.126,0,0,1,.092-2.177c0-.092-.033-.141-.189-.158-.326-.015-.8-.092-1.09-.138a15.392,15.392,0,0,0-2.424-.217,6.868,6.868,0,0,0-3.689.853,4.9,4.9,0,0,0-2.4,4.327c0,3.658,2.973,5.182,6.336,5.182a8.275,8.275,0,0,0,3.348-.592c.17-.092.17-.107.17-.465Z" transform="translate(-15312.515 -9999.61)" fill="#2b2a29"/>
    <path id="_3" data-name="3" d="M17581.162,10055.044c0,1.277,0,2.334-.061,2.878-.045.39-.125.576-.408.638a2.009,2.009,0,0,1-.48.048c-.17,0-.215.077-.215.139,0,.094.088.14.266.14.541,0,1.475-.046,1.787-.046.369,0,1.3.046,2.209.046.156,0,.268-.046.268-.14,0-.062-.068-.139-.225-.139a5.2,5.2,0,0,1-.7-.048c-.408-.062-.5-.266-.549-.623-.059-.559-.059-1.615-.059-2.893v-2.335c0-2.008,0-2.381.029-2.8.029-.467.141-.653.518-.714a1.765,1.765,0,0,1,.4-.049c.139,0,.215-.028.215-.153,0-.079-.1-.109-.281-.109-.529,0-1.416.03-1.75.03-.395,0-1.328-.03-1.838-.03-.225,0-.328.03-.328.109,0,.125.076.153.215.153a1.7,1.7,0,0,1,.5.063c.3.095.438.248.467.7.016.421.016.794.016,2.8Z" transform="translate(-17516.768 -10032.523)" fill="#2b2a29"/>
    <path id="_4" data-name="4" d="M18556.75,10022.11c0,1.212,0,2.253-.061,2.816-.047.386-.129.636-.406.7a1.767,1.767,0,0,1-.482.046c-.17,0-.217.077-.217.141,0,.1.092.14.266.14.539,0,1.475-.044,1.789-.044.387,0,1.3.044,2.207.044.15,0,.262-.044.262-.14,0-.063-.062-.141-.219-.141a4.539,4.539,0,0,1-.7-.046c-.4-.062-.479-.312-.525-.682-.064-.579-.076-1.62-.076-2.832v-5.351l1.725.032c1.227.016,1.582.419,1.615.763l.016.139c.014.2.043.263.16.263.076,0,.105-.074.117-.215,0-.349.037-1.33.037-1.608,0-.2-.02-.279-.111-.279-.043,0-.16.031-.377.06a5.407,5.407,0,0,1-.932.068h-5.553c-.451,0-.963-.021-1.369-.063-.338-.049-.479-.16-.59-.16-.074,0-.123.079-.156.252-.031.111-.293,1.388-.293,1.6,0,.143.029.219.121.219s.129-.063.156-.171a1.67,1.67,0,0,1,.234-.451c.2-.3.527-.388,1.322-.4l2.039-.048Z" transform="translate(-18484.201 -9999.587)" fill="#2b2a29"/>
    <path id="_5" data-name="5" d="M19958.313,10011.619a.132.132,0,0,1,.145.094l1.053,2.675a.207.207,0,0,1-.119.3c-.145.016-.176.063-.176.141,0,.094.154.094.408.107,1.152.035,2.148.035,2.631.035.518,0,.588-.035.588-.143s-.062-.141-.189-.141a3.532,3.532,0,0,1-.514-.046c-.248-.046-.635-.22-1.166-1.416-.867-2.008-3.156-7.358-3.48-8.091-.141-.3-.205-.421-.4-.421-.145,0-.25.155-.408.53l-3.578,8.262c-.279.669-.518,1.072-1.139,1.166-.127,0-.281.016-.4.016a.135.135,0,0,0-.152.141c0,.107.074.143.25.143.713,0,1.445-.049,1.586-.049.434,0,1.07.049,1.521.049.141,0,.215-.035.215-.143,0-.077-.027-.141-.2-.141h-.207c-.416,0-.543-.138-.543-.373a2.325,2.325,0,0,1,.207-.809l.73-1.789c.031-.078.049-.094.129-.094Zm-2.937-.729c-.049,0-.078-.033-.049-.095l1.324-3.3c.014-.048.031-.129.08-.129.029,0,.047.081.061.129l1.293,3.31c.014.049,0,.082-.064.082Z" transform="translate(-19874.865 -9988.602)" fill="#2b2a29"/>
    <path id="_6" data-name="6" d="M22021.975,10052.7c0-2.008,0-2.383.035-2.8.029-.465.135-.651.512-.715a3.105,3.105,0,0,1,.527-.048c.17,0,.25-.046.25-.139s-.088-.125-.295-.125c-.529,0-1.652.031-1.977.031-.377,0-1.246-.031-1.881-.031-.2,0-.293.031-.293.125s.074.139.227.139a1.8,1.8,0,0,1,.451.048c.439.125.563.266.594.715.021.421.021.8.021,2.8v2.332c0,1.215,0,2.256-.07,2.817-.049.39-.123.638-.4.7a2.01,2.01,0,0,1-.477.046c-.176,0-.225.077-.225.141,0,.09.1.138.268.138.281,0,.623-.016.951-.028s.623-.02.775-.02c.563,0,1.137.02,1.82.032.684.031,1.482.049,2.459.049.715,0,.777-.062.873-.357a9.971,9.971,0,0,0,.2-1.525c0-.156-.031-.3-.119-.3-.109,0-.139.076-.156.2a1.638,1.638,0,0,1-.338.794c-.348.359-.877.372-1.609.372-1.057,0-1.582-.079-1.82-.278-.3-.25-.3-1.089-.3-2.786Z" transform="translate(-21930.668 -10032.512)" fill="#2b2a29"/>
    <path id="Path_1663" data-name="Path 1663" d="M11890.2,12442.306l1.312-4.156h.486l1.386,4.156h-.511l-.395-1.26h-1.434l-.371,1.26Zm.974-1.705h1.168l-.359-1.153c-.111-.353-.188-.638-.245-.861a5.4,5.4,0,0,1-.185.8Z" transform="translate(-11859.036 -12408.343)" fill="#2b2a29"/>
    <path id="_1-3" data-name="1" d="M12706.6,12442.306v-4.156h1.28a1.312,1.312,0,0,1,.62.123.9.9,0,0,1,.368.373,1.092,1.092,0,0,1,.147.563,1.063,1.063,0,0,1-.125.516.949.949,0,0,1-.354.368.924.924,0,0,1,.465.366,1.166,1.166,0,0,1,.169.645,1.357,1.357,0,0,1-.155.66.954.954,0,0,1-.41.414,1.581,1.581,0,0,1-.708.129Zm.454-2.409h.736a1.511,1.511,0,0,0,.412-.039.519.519,0,0,0,.27-.2.678.678,0,0,0,.1-.384.755.755,0,0,0-.088-.375.461.461,0,0,0-.23-.206,1.6,1.6,0,0,0-.515-.057h-.682Zm0,1.923h.846a1.2,1.2,0,0,0,.414-.053.557.557,0,0,0,.294-.243.829.829,0,0,0,.1-.423.731.731,0,0,0-.1-.4.565.565,0,0,0-.254-.241,1.273,1.273,0,0,0-.513-.076h-.787Z" transform="translate(-12670.837 -12408.343)" fill="#2b2a29"/>
    <path id="_2-3" data-name="2" d="M13238.171,12632.556a1.586,1.586,0,0,1-.437.326,1.056,1.056,0,0,1-.471.109.817.817,0,0,1-.614-.228.857.857,0,0,1-.23-.632.973.973,0,0,1,.107-.458.8.8,0,0,1,.294-.315,1.521,1.521,0,0,1,.568-.171,3.065,3.065,0,0,0,.752-.171l0-.134a.656.656,0,0,0-.109-.432.592.592,0,0,0-.479-.187.682.682,0,0,0-.438.123.788.788,0,0,0-.21.455l-.419-.074a1.126,1.126,0,0,1,.357-.7,1.207,1.207,0,0,1,.768-.215,1.1,1.1,0,0,1,.609.145.621.621,0,0,1,.28.361,2.557,2.557,0,0,1,.057.627v.682a7.183,7.183,0,0,0,.031.9,1.188,1.188,0,0,0,.1.359h-.438A1.349,1.349,0,0,1,13238.171,12632.556Zm-.03-1.138a2.748,2.748,0,0,1-.685.188,1.458,1.458,0,0,0-.37.1.45.45,0,0,0-.162.164.513.513,0,0,0-.058.248.459.459,0,0,0,.132.345.518.518,0,0,0,.37.131.761.761,0,0,0,.68-.427,1.369,1.369,0,0,0,.093-.568Z" transform="translate(-13197.676 -12598.964)" fill="#2b2a29"/>
    <path id="_3-2" data-name="3" d="M13732.3,12442.306v-4.156h.419v1.5a1.044,1.044,0,0,1,.331-.313.817.817,0,0,1,.407-.1.787.787,0,0,1,.623.252,1.368,1.368,0,0,1,.228.916v1.907h-.419v-1.9a.9.9,0,0,0-.138-.562.46.46,0,0,0-.379-.171.6.6,0,0,0-.465.217,1.207,1.207,0,0,0-.188.771v1.646Z" transform="translate(-13690.761 -12408.343)" fill="#2b2a29"/>
    <path id="_4-2" data-name="4" d="M14149.661,12644.213l-.761-3.015h.43l.4,1.738.145.649.129-.623.387-1.765h.444l.366,1.745.123.579.145-.586.419-1.738h.412l-.771,3.015h-.437l-.4-1.807-.095-.511-.5,2.317Z" transform="translate(-14105.021 -12610.248)" fill="#2b2a29"/>
    <path id="_5-2" data-name="5" d="M14788.672,12632.556a1.6,1.6,0,0,1-.436.326,1.073,1.073,0,0,1-.473.109.814.814,0,0,1-.615-.228.869.869,0,0,1-.23-.632.961.961,0,0,1,.107-.458.762.762,0,0,1,.295-.315,1.492,1.492,0,0,1,.568-.171,3.045,3.045,0,0,0,.75-.171l0-.134a.645.645,0,0,0-.109-.432.6.6,0,0,0-.479-.187.669.669,0,0,0-.434.123.82.82,0,0,0-.215.455l-.418-.074a1.142,1.142,0,0,1,.359-.7,1.2,1.2,0,0,1,.768-.215,1.119,1.119,0,0,1,.611.145.619.619,0,0,1,.275.361,2.447,2.447,0,0,1,.059.627v.682a8.8,8.8,0,0,0,.027.9,1.516,1.516,0,0,0,.107.359h-.432A1.247,1.247,0,0,1,14788.672,12632.556Zm-.033-1.138a2.745,2.745,0,0,1-.682.188,1.364,1.364,0,0,0-.369.1.419.419,0,0,0-.166.164.523.523,0,0,0-.055.248.45.45,0,0,0,.129.345.519.519,0,0,0,.371.131.742.742,0,0,0,.408-.12.72.72,0,0,0,.273-.307,1.426,1.426,0,0,0,.09-.568Z" transform="translate(-14739.445 -12598.964)" fill="#2b2a29"/>
    <path id="_6-2" data-name="6" d="M15282.9,12633v-3.012h.379v.432a.938.938,0,0,1,.332-.373.817.817,0,0,1,.447-.12.894.894,0,0,1,.369.074.753.753,0,0,1,.27.2.838.838,0,0,1,.154.326,2.613,2.613,0,0,1,.049.618V12633h-.414v-1.83a1.46,1.46,0,0,0-.059-.484.448.448,0,0,0-.176-.237.482.482,0,0,0-.275-.083.582.582,0,0,0-.48.224,1.259,1.259,0,0,0-.178.767V12633Z" transform="translate(-15232.635 -12599.045)" fill="#2b2a29"/>
    <path id="_7" data-name="7" d="M15976.258,12428.548l.451.138a1.889,1.889,0,0,1-.525,1.041,1.3,1.3,0,0,1-.912.347,1.4,1.4,0,0,1-.811-.232,1.639,1.639,0,0,1-.549-.741,3.055,3.055,0,0,1-.215-1.205,2.794,2.794,0,0,1,.215-1.16,1.62,1.62,0,0,1,.58-.714,1.414,1.414,0,0,1,.816-.241,1.249,1.249,0,0,1,.846.3,1.635,1.635,0,0,1,.5.9l-.439.132c-.152-.579-.453-.866-.912-.866a1.007,1.007,0,0,0-.59.173,1.143,1.143,0,0,0-.395.544,2.441,2.441,0,0,0-.154.93,2.217,2.217,0,0,0,.3,1.282.922.922,0,0,0,.8.425.871.871,0,0,0,.637-.263A1.407,1.407,0,0,0,15976.258,12428.548Z" transform="translate(-15919.543 -12396.041)" fill="#2b2a29"/>
    <path id="_8" data-name="8" d="M16558.367,12645.354l-.049-.474a.8.8,0,0,0,.232.046.42.42,0,0,0,.225-.055.411.411,0,0,0,.141-.167c.01-.028.064-.2.162-.515l-.93-3h.451l.516,1.729c.059.215.117.447.176.692.047-.232.1-.46.166-.682l.531-1.74h.418l-.937,3.063a5.684,5.684,0,0,1-.291.793.758.758,0,0,1-.244.285.529.529,0,0,1-.3.09A.621.621,0,0,1,16558.367,12645.354Z" transform="translate(-16500.707 -12610.238)" fill="#2b2a29"/>
    <path id="_9" data-name="9" d="M17021.605,12442.306h-.387v-4.156h.418v1.484a.925.925,0,0,1,.3-.3.751.751,0,0,1,.379-.1.849.849,0,0,1,.523.173,1.181,1.181,0,0,1,.379.524,2.2,2.2,0,0,1,.145.853,1.946,1.946,0,0,1-.32,1.182.941.941,0,0,1-.75.414.721.721,0,0,1-.391-.111,1.024,1.024,0,0,1-.3-.334Zm0-1.525a2.11,2.11,0,0,0,.086.7.755.755,0,0,0,.242.355.54.54,0,0,0,.344.12.551.551,0,0,0,.453-.291,1.475,1.475,0,0,0,.2-.87,1.558,1.558,0,0,0-.187-.871.579.579,0,0,0-.477-.278.569.569,0,0,0-.461.292A1.452,1.452,0,0,0,17021.6,12440.78Z" transform="translate(-16961.168 -12408.343)" fill="#2b2a29"/>
    <path id="_10" data-name="10" d="M17467.512,12632l.43.063a1.28,1.28,0,0,1-.393.726,1,1,0,0,1-.7.246,1.051,1.051,0,0,1-.854-.4,1.819,1.819,0,0,1-.322-1.148,1.9,1.9,0,0,1,.328-1.19,1.03,1.03,0,0,1,.832-.408,1,1,0,0,1,.8.4,1.893,1.893,0,0,1,.318,1.168l-.008.134h-1.846a1.313,1.313,0,0,0,.236.768.648.648,0,0,0,.512.259C17467.168,12632.616,17467.389,12632.412,17467.512,12632Zm-1.383-.831h1.383a1.2,1.2,0,0,0-.166-.585.613.613,0,0,0-1-.044A1.05,1.05,0,0,0,17466.129,12631.169Z" transform="translate(-17403.123 -12599)" fill="#2b2a29"/>
    <path id="_11" data-name="11" d="M17961.6,12633v-3.012h.375v.462a1.432,1.432,0,0,1,.262-.423.415.415,0,0,1,.271-.1.709.709,0,0,1,.43.16l-.137.476a.534.534,0,0,0-.3-.109.358.358,0,0,0-.244.092.5.5,0,0,0-.156.261,2.439,2.439,0,0,0-.08.62V12633Z" transform="translate(-17896.252 -12599.045)" fill="#2b2a29"/>
    <path id="_12" data-name="12" d="M18211.219,12442.254v-3.67h-1.123v-.484h2.7v.484h-1.127v3.67Z" transform="translate(-18143.35 -12408.293)" fill="#2b2a29"/>
    <path id="_13" data-name="13" d="M18642.012,12632l.43.063a1.29,1.29,0,0,1-.391.726,1.013,1.013,0,0,1-.7.246,1.047,1.047,0,0,1-.855-.4,1.819,1.819,0,0,1-.32-1.148,1.876,1.876,0,0,1,.33-1.19,1.015,1.015,0,0,1,.828-.408,1,1,0,0,1,.8.4,1.893,1.893,0,0,1,.314,1.168v.134h-1.846a1.248,1.248,0,0,0,.238.768.633.633,0,0,0,.508.259C18641.664,12632.616,18641.889,12632.412,18642.012,12632Zm-1.377-.831h1.377a1.141,1.141,0,0,0-.168-.585.609.609,0,0,0-.994-.044A.989.989,0,0,0,18640.635,12631.169Z" transform="translate(-18571.012 -12599)" fill="#2b2a29"/>
    <path id="_14" data-name="14" d="M19138.2,12442.254v-4.154h.418v2.356l.986-1.214h.547l-.951,1.117,1.049,1.895h-.523l-.818-1.539-.289.342v1.2Z" transform="translate(-19066.227 -12408.293)" fill="#2b2a29"/>
    <path id="_15" data-name="15" d="M19782.258,12428.548l.453.138a1.943,1.943,0,0,1-.527,1.041,1.3,1.3,0,0,1-.916.347,1.4,1.4,0,0,1-.807-.232,1.625,1.625,0,0,1-.549-.741,3.053,3.053,0,0,1-.219-1.205,2.792,2.792,0,0,1,.219-1.16,1.623,1.623,0,0,1,.574-.714,1.444,1.444,0,0,1,.82-.241,1.271,1.271,0,0,1,.852.3,1.7,1.7,0,0,1,.494.9l-.441.132c-.154-.579-.453-.866-.912-.866a1,1,0,0,0-.592.173,1.183,1.183,0,0,0-.395.544,2.441,2.441,0,0,0-.154.93,2.264,2.264,0,0,0,.3,1.282.932.932,0,0,0,.8.425.87.87,0,0,0,.635-.263A1.436,1.436,0,0,0,19782.258,12428.548Z" transform="translate(-19704.109 -12396.041)" fill="#2b2a29"/>
    <path id="_16" data-name="16" d="M20376.5,12631.45a1.815,1.815,0,0,1,.328-1.176,1.055,1.055,0,0,1,1.648,0,1.726,1.726,0,0,1,.33,1.145,1.879,1.879,0,0,1-.32,1.21,1.035,1.035,0,0,1-.834.395,1.015,1.015,0,0,1-.818-.4A1.784,1.784,0,0,1,20376.5,12631.45Zm.43,0a1.49,1.49,0,0,0,.211.87.648.648,0,0,0,.525.285.624.624,0,0,0,.51-.287,1.52,1.52,0,0,0,.205-.868,1.426,1.426,0,0,0-.215-.868.625.625,0,0,0-.525-.285.611.611,0,0,0-.5.287A1.451,1.451,0,0,0,20376.928,12631.45Z" transform="translate(-20297.559 -12598.991)" fill="#2b2a29"/>
    <path id="_17" data-name="17" d="M20874.594,12633.006v-3.014h.377v.427a.878.878,0,0,1,.32-.361.734.734,0,0,1,.424-.13.654.654,0,0,1,.434.137.687.687,0,0,1,.256.392,1.188,1.188,0,0,1,.342-.4.732.732,0,0,1,.42-.132.687.687,0,0,1,.563.244,1.15,1.15,0,0,1,.205.767v2.067h-.416v-1.9a1.584,1.584,0,0,0-.045-.458.423.423,0,0,0-.156-.21.429.429,0,0,0-.238-.07.544.544,0,0,0-.437.213,1.075,1.075,0,0,0-.172.673v1.749h-.416v-1.955a.932.932,0,0,0-.109-.528.387.387,0,0,0-.32-.151.528.528,0,0,0-.447.23,1.544,1.544,0,0,0-.166.844v1.561Z" transform="translate(-20792.848 -12599.041)" fill="#2b2a29"/>
    <path id="_18" data-name="18" d="M21578.9,12634.079v-4.167h.391v.4a.95.95,0,0,1,.311-.351.752.752,0,0,1,.395-.107.844.844,0,0,1,.521.173,1.157,1.157,0,0,1,.379.521,2.294,2.294,0,0,1,.145.853,1.9,1.9,0,0,1-.32,1.184.959.959,0,0,1-.76.415.713.713,0,0,1-.359-.1.909.909,0,0,1-.285-.275v1.46Zm.387-2.635a1.485,1.485,0,0,0,.191.854.549.549,0,0,0,.471.278.586.586,0,0,0,.465-.285,2.08,2.08,0,0,0,0-1.76.564.564,0,0,0-.475-.283.571.571,0,0,0-.455.3A1.591,1.591,0,0,0,21579.283,12631.444Z" transform="translate(-21493.186 -12598.964)" fill="#2b2a29"/>
    <path id="_19" data-name="19" d="M22025.074,12632.556a1.649,1.649,0,0,1-.441.326,1.035,1.035,0,0,1-.471.109.818.818,0,0,1-.613-.228.871.871,0,0,1-.232-.632.919.919,0,0,1,.109-.458.735.735,0,0,1,.3-.315,1.492,1.492,0,0,1,.566-.171,2.981,2.981,0,0,0,.748-.171v-.134a.636.636,0,0,0-.105-.432.593.593,0,0,0-.477-.187.7.7,0,0,0-.443.123.834.834,0,0,0-.205.455l-.422-.074a1.17,1.17,0,0,1,.355-.7,1.221,1.221,0,0,1,.768-.215,1.113,1.113,0,0,1,.613.145.619.619,0,0,1,.275.361,2.415,2.415,0,0,1,.063.627v.682c0,.476.008.776.025.9a1.121,1.121,0,0,0,.109.359h-.441A1.142,1.142,0,0,1,22025.074,12632.556Zm-.035-1.138a2.714,2.714,0,0,1-.684.188,1.415,1.415,0,0,0-.367.1.385.385,0,0,0-.162.164.506.506,0,0,0-.062.248.437.437,0,0,0,.141.345.487.487,0,0,0,.359.131.755.755,0,0,0,.412-.12.715.715,0,0,0,.271-.307,1.355,1.355,0,0,0,.092-.568Z" transform="translate(-21935.105 -12598.964)" fill="#2b2a29"/>
    <path id="_20" data-name="20" d="M22519.295,12633v-3.012h.383v.432a.93.93,0,0,1,.328-.373.817.817,0,0,1,.447-.12.925.925,0,0,1,.373.074.763.763,0,0,1,.268.2.784.784,0,0,1,.152.326,2.677,2.677,0,0,1,.053.618V12633h-.416v-1.83a1.585,1.585,0,0,0-.057-.484.486.486,0,0,0-.18-.237.479.479,0,0,0-.277-.083.572.572,0,0,0-.477.224,1.231,1.231,0,0,0-.18.767V12633Z" transform="translate(-22428.293 -12599.045)" fill="#2b2a29"/>
    <path id="_21" data-name="21" d="M22949.463,12645.354l-.047-.474a.814.814,0,0,0,.236.046.393.393,0,0,0,.219-.055.383.383,0,0,0,.141-.167c.018-.028.07-.2.166-.515l-.934-3h.455l.51,1.729c.064.215.123.447.176.692.057-.232.109-.46.174-.682l.523-1.74h.42l-.934,3.063a4.894,4.894,0,0,1-.295.793.746.746,0,0,1-.236.285.546.546,0,0,1-.307.09A.637.637,0,0,1,22949.463,12645.354Z" transform="translate(-22855.822 -12610.238)" fill="#2b2a29"/>
  </g>
</svg>
