<svg xmlns="http://www.w3.org/2000/svg" width="14.231" height="14.292" viewBox="0 0 14.231 14.292">
  <g id="Layer_2" data-name="Layer 2" transform="translate(0.02)">
    <g id="Layer_1" data-name="Layer 1" transform="translate(-0.02)">
      <path id="Path_51" data-name="Path 51" d="M1.891,21.875V19.9a6.785,6.785,0,0,0,0-.968.574.574,0,0,0-.566-.443H.57a.607.607,0,0,0-.41.152.533.533,0,0,0-.18.373V24.65a.574.574,0,0,0,.525.492H6.1a.529.529,0,0,0,.41-.2c.2-.217.143-.685.143-1.05,0-.82-.771-.652-1.365-.652H3.268l.41-.447c.357-.357,2.776-2.755,2.895-2.9a.611.611,0,0,0,.086-.652A6.1,6.1,0,0,0,6,18.545a.586.586,0,0,0-.73-.053c-.074.045-2.772,2.763-3.161,3.153A2.46,2.46,0,0,1,1.891,21.875Z" transform="translate(0.02 -10.85)" fill="#fff" fill-rule="evenodd"/>
      <path id="Path_52" data-name="Path 52" d="M18.344.594v.713a.582.582,0,0,0,.41.574,6.351,6.351,0,0,0,.98,0h1.993c-.045.07-1.747,1.751-1.8,1.8l-1.57,1.578a.582.582,0,0,0-.066.578,1.607,1.607,0,0,0,.389.451c.094.094.18.189.275.279a.582.582,0,0,0,.742.049c.131-.061,2.6-2.558,2.956-2.9L23.1,3.28V6.215a.578.578,0,0,0,.537.451h.787a.582.582,0,0,0,.508-.307.545.545,0,0,0,.057-.217V.521A.566.566,0,0,0,24.473,0H18.881a.582.582,0,0,0-.537.594Z" transform="translate(-10.755)" fill="#fff" fill-rule="evenodd"/>
    </g>
  </g>
</svg>
